<?xml version="1.0" encoding="UTF-8"?>
<svg width="768" height="576" version="1.1" viewBox="0 0 768 576" xmlns="http://www.w3.org/2000/svg">
 <defs>
  <clipPath id="clipPath">
   <circle cx="384" cy="288" r="252"/>
  </clipPath>
  <linearGradient id="linearGradient1" x1="174" x2="182.4" y1="309" y2="309" gradientUnits="userSpaceOnUse" spreadMethod="reflect">
   <stop offset="0"/>
   <stop stop-color="#fff" offset="1"/>
  </linearGradient>
  <linearGradient id="linearGradient2" x1="258" x2="262.2" y1="309" y2="309" gradientUnits="userSpaceOnUse" spreadMethod="reflect">
   <stop offset="0"/>
   <stop stop-color="#fff" offset="1"/>
  </linearGradient>
  <linearGradient id="linearGradient3" x1="342" x2="344.625" y1="309" y2="309" gradientUnits="userSpaceOnUse" spreadMethod="reflect">
   <stop offset="0"/>
   <stop stop-color="#fff" offset="1"/>
  </linearGradient>
  <linearGradient id="linearGradient4" x1="426" x2="428.1" y1="309" y2="309" gradientUnits="userSpaceOnUse" spreadMethod="reflect">
   <stop offset="0"/>
   <stop stop-color="#fff" offset="1"/>
  </linearGradient>
  <linearGradient id="linearGradient5" x1="510" x2="512.4" y1="309" y2="309" gradientUnits="userSpaceOnUse" spreadMethod="reflect">
   <stop offset="0"/>
   <stop stop-color="#fff" offset="1"/>
  </linearGradient>
  <pattern id="checkerboard" x="27" y="15" width="84" height="84" patternUnits="userSpaceOnUse">
   <path d="m0 0h42v84h42v-42h-78z" fill="#fff" />
   <path d="m0 84h42v-84h42v42h-84z" />
  </pattern>
  <pattern id="stripes" x="384" y="141" width="59" height="42" patternUnits="userSpaceOnUse">
   <rect width="30" height="42"/>
   <rect x="30" width="29" height="42" fill="#bfbfbf"/>
  </pattern>
 </defs>
 <rect width="768" height="576" fill="url(#checkerboard)"/>
 <rect x="27" y="15" width="714" height="546" fill="#7a7a7a"/>
 <g stroke="#fff" stroke-width="3.2">
  <line x2="768" y1="15" y2="15"/>
  <line x2="768" y1="57" y2="57"/>
  <line x2="768" y1="99" y2="99"/>
  <line x2="768" y1="141" y2="141"/>
  <line x2="768" y1="183" y2="183"/>
  <line x2="768" y1="225" y2="225"/>
  <line x2="768" y1="267" y2="267"/>
  <line x2="768" y1="309" y2="309"/>
  <line x2="768" y1="351" y2="351"/>
  <line x2="768" y1="393" y2="393"/>
  <line x2="768" y1="435" y2="435"/>
  <line x2="768" y1="477" y2="477"/>
  <line x2="768" y1="519" y2="519"/>
  <line x2="768" y1="561" y2="561"/>
  <line x1="27" x2="27" y2="576"/>
  <line x1="69" x2="69" y2="576"/>
  <line x1="111" x2="111" y2="576"/>
  <line x1="153" x2="153" y2="576"/>
  <line x1="195" x2="195" y2="576"/>
  <line x1="237" x2="237" y2="576"/>
  <line x1="279" x2="279" y2="576"/>
  <line x1="321" x2="321" y2="576"/>
  <line x1="363" x2="363" y2="576"/>
  <line x1="405" x2="405" y2="576"/>
  <line x1="447" x2="447" y2="576"/>
  <line x1="489" x2="489" y2="576"/>
  <line x1="531" x2="531" y2="576"/>
  <line x1="573" x2="573" y2="576"/>
  <line x1="615" x2="615" y2="576"/>
  <line x1="657" x2="657" y2="576"/>
  <line x1="699" x2="699" y2="576"/>
  <line x1="741" x2="741" y2="576"/>
 </g>
 <rect x="69" y="57" width="42" height="231" fill="#3c997a"/>
 <rect x="69" y="288" width="42" height="231" fill="#b85b7a"/>
 <rect x="111" y="57" width="42" height="84" fill="#577ad6"/>
 <rect x="111" y="435" width="42" height="84" fill="#9d7a1e"/>
 <rect x="615" y="57" width="42" height="84" fill="#577ad6"/>
 <rect x="615" y="435" width="42" height="84" fill="#9d7a1e"/>
 <rect x="657" y="57" width="42" height="231" fill="#7a900a"/>
 <rect x="657" y="288" width="42" height="231" fill="#7a64ea"/>
 <path d="m69 57h84v84h-42v294h42v84h-84v-462z" fill="none" stroke="#fff" stroke-width="3.2"/>
 <path d="m615 57h84v462h-84v-84h42v-294h-42v-84z" fill="none" stroke="#fff" stroke-width="3.2"/>
 <g clip-path="url(#clipPath)">
  <rect x="132" y="36" width="504" height="21" fill="#fff"/>
  <rect x="132" y="57" width="168" height="42" fill="#fff"/>
  <rect x="300" y="57" width="168" height="42"/>
  <rect x="468" y="57" width="168" height="42" fill="#fff"/>
  <rect x="132" y="99" width="126" height="42"/>
  <rect x="258" y="99" width="252" height="42" fill="#fff"/>
  <rect x="510" y="99" width="126" height="42"/>
  <rect x="132" y="141" width="504" height="42" fill="url(#stripes)"/>
  <rect x="132" y="183" width="84" height="84" fill="#bfbf00"/>
  <rect x="216" y="183" width="84" height="84" fill="#00bfbf"/>
  <rect x="300" y="183" width="84" height="84" fill="#00bf00"/>
  <rect x="384" y="183" width="84" height="84" fill="#bf00bf"/>
  <rect x="468" y="183" width="84" height="84" fill="#bf0000"/>
  <rect x="552" y="183" width="84" height="84" fill="#0000bf"/>
  <rect x="132" y="267" width="504" height="42"/>
  <rect x="132" y="309" width="504" height="84"/>
  <rect x="174" y="309" width="84" height="84" fill="url(#linearGradient1)"/>
  <rect x="258" y="309" width="84" height="84" fill="url(#linearGradient2)"/>
  <rect x="342" y="309" width="84" height="84" fill="url(#linearGradient3)"/>
  <rect x="426" y="309" width="84" height="84" fill="url(#linearGradient4)"/>
  <rect x="510" y="309" width="84" height="84" fill="url(#linearGradient5)"/>
  <rect x="132" y="393" width="84" height="42"/>
  <rect x="216" y="393" width="84" height="42" fill="#333"/>
  <rect x="300" y="393" width="84" height="42" fill="#666"/>
  <rect x="384" y="393" width="84" height="42" fill="#999"/>
  <rect x="468" y="393" width="84" height="42" fill="#ccc"/>
  <rect x="552" y="393" width="84" height="42" fill="#fff"/>
  <rect x="132" y="435" width="126" height="42" fill="#fff"/>
  <rect x="258" y="435" width="252" height="42"/>
  <rect x="510" y="435" width="126" height="42" fill="#fff"/>
  <rect x="132" y="477" width="231" height="63" fill="#bfbf00"/>
  <rect x="363" y="477" width="42" height="63" fill="#bf0000"/>
  <rect x="405" y="477" width="231" height="63" fill="#bfbf00"/>
  <rect x="363" y="225" width="42" height="126"/>
  <g stroke-width="3.2">
   <g stroke="#fff">
    <line x1="132" x2="636" y1="288" y2="288"/>
    <line x1="384" x2="384" y1="225" y2="351"/>
    <line x1="152" x2="152" y1="267" y2="309"/>
    <line x1="195" x2="195" y1="267" y2="309"/>
    <line x1="237" x2="237" y1="267" y2="309"/>
    <line x1="279" x2="279" y1="267" y2="309"/>
    <line x1="321" x2="321" y1="267" y2="309"/>
    <line x1="363" x2="363" y1="267" y2="309"/>
    <line x1="405" x2="405" y1="267" y2="309"/>
    <line x1="447" x2="447" y1="267" y2="309"/>
    <line x1="489" x2="489" y1="267" y2="309"/>
    <line x1="531" x2="531" y1="267" y2="309"/>
    <line x1="573" x2="573" y1="267" y2="309"/>
    <line x1="615" x2="615" y1="267" y2="309"/>
   </g>
   <line x1="279" x2="279" y1="99" y2="141" stroke="#000"/>
   <line x1="279" x2="279" y1="435" y2="477" stroke="#fff"/>
  </g>
 </g>
</svg>
