<svg
   width="768px"
   height="576px"
   viewBox="0 0 768 576"
   version="1.1"
   id="svg1"
   xmlns="http://www.w3.org/2000/svg">
  <defs
     id="defs1">
    <clipPath
       id="clipPath138">
      <circle
         id="circle138"
         r="252"
         cx="384"
         cy="288" />
    </clipPath>
    <linearGradient
       id="linearGradient1"
       x1="174"
       y1="84"
       x2="178.25"
       y2="84"
       gradientUnits="userSpaceOnUse"
       spreadMethod="reflect">
      <stop
         id="stop1"
         offset="0"
         style="stop-color:#000000" />
      <stop
         id="stop2"
         offset="1"
         style="stop-color:#ffffff" />
    </linearGradient>
    <linearGradient
       id="linearGradient4"
       x1="258"
       y1="84"
       x2="261.6666"
       y2="84"
       gradientUnits="userSpaceOnUse"
       spreadMethod="reflect">
      <stop
         id="stop3"
         offset="0"
         style="stop-color:#000000" />
      <stop
         id="stop4"
         offset="1"
         style="stop-color:#ffffff" />
    </linearGradient>
    <linearGradient
       id="linearGradient6"
       x1="344.2"
       y1="84"
       x2="346.25"
       y2="84"
       gradientUnits="userSpaceOnUse"
       spreadMethod="reflect">
      <stop
         id="stop5"
         offset="0"
         style="stop-color:#000000" />
      <stop
         id="stop6"
         offset="1"
         style="stop-color:#ffffff" />
    </linearGradient>
    <linearGradient
       id="linearGradient8"
       x1="425"
       y1="84"
       x2="426.5"
       y2="84"
       gradientUnits="userSpaceOnUse"
       spreadMethod="reflect">
      <stop
         id="stop7"
         offset="0"
         style="stop-color:#000000" />
      <stop
         id="stop8"
         offset="1"
         style="stop-color:#ffffff" />
    </linearGradient>
    <linearGradient
       id="linearGradient10"
       x1="514.2"
       y1="84"
       x2="515.225"
       y2="84"
       gradientUnits="userSpaceOnUse"
       spreadMethod="reflect">
      <stop
         id="stop9"
         offset="0"
         style="stop-color:#000000" />
      <stop
         id="stop10"
         offset="1"
         style="stop-color:#ffffff" />
    </linearGradient>
  </defs>
  <g
     id="layer1">
    <rect
       id="rect1"
       x="27"
       y="15"
       width="714"
       height="546"
       style="fill:#808080" />
    <rect
       id="rect2"
       x="0"
       y="0"
       width="27"
       height="15"
       style="fill:#fff" />
    <rect
       id="rect3"
       x="27"
       y="0"
       width="42"
       height="15" />
    <rect
       id="rect4"
       x="69"
       y="0"
       width="42"
       height="15"
       style="fill:#fff" />
    <rect
       id="rect5"
       x="111"
       y="0"
       width="42"
       height="15" />
    <rect
       id="rect6"
       x="153"
       y="0"
       width="42"
       height="15"
       style="fill:#fff" />
    <rect
       id="rect7"
       x="195"
       y="0"
       width="42"
       height="15" />
    <rect
       id="rect8"
       x="237"
       y="0"
       width="42"
       height="15"
       style="fill:#fff" />
    <rect
       id="rect9"
       x="279"
       y="0"
       width="42"
       height="15" />
    <rect
       id="rect10"
       x="321"
       y="-0"
       width="42"
       height="15"
       style="fill:#fff" />
    <rect
       id="rect11"
       x="363"
       y="0"
       width="42"
       height="15" />
    <rect
       id="rect12"
       x="405"
       y="0"
       width="42"
       height="15"
       style="fill:#fff" />
    <rect
       id="rect13"
       x="447"
       y="0"
       width="42"
       height="15" />
    <rect
       id="rect14"
       x="489"
       y="0"
       width="42"
       height="15"
       style="fill:#fff" />
    <rect
       id="rect15"
       x="531"
       y="0"
       width="42"
       height="15" />
    <rect
       id="rect16"
       x="573"
       y="0"
       width="42"
       height="15"
       style="fill:#fff" />
    <rect
       id="rect17"
       x="615"
       y="0"
       width="42"
       height="15" />
    <rect
       id="rect18"
       x="657"
       y="0"
       width="42"
       height="15"
       style="fill:#fff" />
    <rect
       id="rect19"
       x="699"
       y="0"
       width="42"
       height="15" />
    <rect
       id="rect20"
       x="741"
       y="0"
       width="27"
       height="15"
       style="fill:#fff" />
    <rect
       id="rect21"
       x="0"
       y="15"
       width="27"
       height="42" />
    <rect
       id="rect22"
       x="0"
       y="57"
       width="27"
       height="42"
       style="fill:#fff" />
    <rect
       id="rect23"
       x="0"
       y="99"
       width="27"
       height="42" />
    <rect
       id="rect24"
       x="0"
       y="141"
       width="27"
       height="42"
       style="fill:#fff" />
    <rect
       id="rect25"
       x="0"
       y="183"
       width="27"
       height="42" />
    <rect
       id="rect26"
       x="0"
       y="225"
       width="27"
       height="42"
       style="fill:#fff" />
    <rect
       id="rect27"
       x="0"
       y="267"
       width="27"
       height="42" />
    <rect
       id="rect28"
       x="0"
       y="309"
       width="27"
       height="42"
       style="fill:#fff" />
    <rect
       id="rect29"
       x="0"
       y="351"
       width="27"
       height="42" />
    <rect
       id="rect30"
       x="0"
       y="393"
       width="27"
       height="42"
       style="fill:#fff" />
    <rect
       id="rect31"
       x="0"
       y="435"
       width="27"
       height="42" />
    <rect
       id="rect32"
       x="0"
       y="477"
       width="27"
       height="42"
       style="fill:#fff" />
    <rect
       id="rect33"
       x="0"
       y="519"
       width="27"
       height="42" />
    <rect
       id="rect34"
       x="0"
       y="0"
       width="27"
       height="15"
       style="fill:#fff" />
    <rect
       id="rect35"
       x="741"
       y="519"
       width="27"
       height="42" />
    <rect
       id="rect36"
       x="741"
       y="477"
       width="27"
       height="42"
       style="fill:#fff" />
    <rect
       id="rect37"
       x="741"
       y="435"
       width="27"
       height="42" />
    <rect
       id="rect38"
       x="741"
       y="393"
       width="27"
       height="42"
       style="fill:#fff" />
    <rect
       id="rect39"
       x="741"
       y="351"
       width="27"
       height="42" />
    <rect
       id="rect40"
       x="741"
       y="309"
       width="27"
       height="42"
       style="fill:#fff" />
    <rect
       id="rect41"
       x="741"
       y="267"
       width="27"
       height="42" />
    <rect
       id="rect42"
       x="741"
       y="225"
       width="27"
       height="42"
       style="fill:#fff" />
    <rect
       id="rect43"
       x="741"
       y="183"
       width="27"
       height="42" />
    <rect
       id="rect44"
       x="741"
       y="141"
       width="27"
       height="42"
       style="fill:#fff" />
    <rect
       id="rect45"
       x="741"
       y="99"
       width="27"
       height="42" />
    <rect
       id="rect46"
       x="741"
       y="57"
       width="27"
       height="42"
       style="fill:#fff" />
    <rect
       id="rect47"
       x="741"
       y="15"
       width="27"
       height="42" />
    <rect
       id="rect48"
       x="27"
       y="561"
       width="42"
       height="15" />
    <rect
       id="rect49"
       x="69"
       y="561"
       width="42"
       height="15"
       style="fill:#ffffff" />
    <rect
       id="rect50"
       x="111"
       y="561"
       width="42"
       height="15" />
    <rect
       id="rect51"
       x="153"
       y="561"
       width="42"
       height="15"
       style="fill:#ffffff" />
    <rect
       id="rect52"
       x="195"
       y="561"
       width="42"
       height="15" />
    <rect
       id="rect53"
       x="237"
       y="561"
       width="42"
       height="15"
       style="fill:#ffffff" />
    <rect
       id="rect54"
       x="279"
       y="561"
       width="42"
       height="15" />
    <rect
       id="rect55"
       x="321"
       y="561"
       width="42"
       height="15"
       style="fill:#ffffff" />
    <rect
       id="rect56"
       x="363"
       y="561"
       width="42"
       height="15" />
    <rect
       id="rect57"
       x="405"
       y="561"
       width="42"
       height="15"
       style="fill:#ffffff" />
    <rect
       id="rect58"
       x="447"
       y="561"
       width="42"
       height="15" />
    <rect
       id="rect59"
       x="489"
       y="561"
       width="42"
       height="15"
       style="fill:#ffffff" />
    <rect
       id="rect60"
       x="531"
       y="561"
       width="42"
       height="15" />
    <rect
       id="rect61"
       x="573"
       y="561"
       width="42"
       height="15"
       style="fill:#ffffff" />
    <rect
       id="rect62"
       x="615"
       y="561"
       width="42"
       height="15" />
    <rect
       id="rect63"
       x="657"
       y="561"
       width="42"
       height="15"
       style="fill:#ffffff" />
    <rect
       id="rect64"
       x="699"
       y="561"
       width="42"
       height="15" />
    <rect
       id="rect65"
       x="741"
       y="561"
       width="27"
       height="15"
       style="fill:#ffffff" />
    <rect
       id="rect66"
       x="0"
       y="561"
       width="27"
       height="15"
       style="fill:#ffffff" />
  </g>
  <g
     id="layer2">
    <g
       id="g70"
       style="stroke:#ffffff;stroke-width:2px">
      <line
         id="line65"
         x1="0"
         x2="768"
         y1="15"
         y2="15" />
      <line
         id="line66"
         x1="0"
         x2="768"
         y1="57"
         y2="57" />
      <line
         id="line67"
         x1="0"
         x2="768"
         y1="99"
         y2="99" />
      <line
         id="line68"
         x1="0"
         x2="768"
         y1="141"
         y2="141" />
      <line
         id="line69"
         x1="0"
         x2="768"
         y1="183"
         y2="183" />
      <line
         id="line70"
         x1="0"
         x2="768"
         y1="225"
         y2="225" />
      <line
         id="line71"
         x1="0"
         x2="768"
         y1="267"
         y2="267" />
      <line
         id="line72"
         x1="0"
         x2="768"
         y1="309"
         y2="309" />
      <line
         id="line73"
         x1="0"
         x2="768"
         y1="351"
         y2="351" />
      <line
         id="line74"
         x1="0"
         x2="768"
         y1="393"
         y2="393" />
      <line
         id="line75"
         x1="0"
         x2="768"
         y1="435"
         y2="435" />
      <line
         id="line76"
         x1="0"
         x2="768"
         y1="477"
         y2="477" />
      <line
         id="line77"
         x1="0"
         x2="768"
         y1="519"
         y2="519" />
      <line
         id="line78"
         x1="0"
         x2="768"
         y1="561"
         y2="561" />
      <line
         id="line79"
         x1="27"
         x2="27"
         y1="0"
         y2="576" />
      <line
         id="line80"
         x1="69"
         x2="69"
         y1="0"
         y2="576" />
      <line
         id="line81"
         x1="111"
         x2="111"
         y1="0"
         y2="576" />
      <line
         id="line82"
         x1="153"
         x2="153"
         y1="0"
         y2="576" />
      <line
         id="line83"
         x1="195"
         x2="195"
         y1="0"
         y2="576" />
      <line
         id="line84"
         x1="237"
         x2="237"
         y1="0"
         y2="576" />
      <line
         id="line85"
         x1="279"
         x2="279"
         y1="0"
         y2="576" />
      <line
         id="line86"
         x1="321"
         x2="321"
         y1="-0"
         y2="576" />
      <line
         id="line87"
         x1="363"
         x2="363"
         y1="0"
         y2="576" />
      <line
         id="line88"
         x1="405"
         x2="405"
         y1="0"
         y2="576" />
      <line
         id="line89"
         x1="447"
         x2="447"
         y1="0"
         y2="576" />
      <line
         id="line90"
         x1="489"
         x2="489"
         y1="0"
         y2="576" />
      <line
         id="line91"
         x1="531"
         x2="531"
         y1="0"
         y2="576" />
      <line
         id="line92"
         x1="573"
         x2="573"
         y1="0"
         y2="576" />
      <line
         id="line93"
         x1="615"
         x2="615"
         y1="0"
         y2="576" />
      <line
         id="line94"
         x1="657"
         x2="657"
         y1="0"
         y2="576" />
      <line
         id="line95"
         x1="699"
         x2="699"
         y1="0"
         y2="576" />
      <line
         id="line96"
         x1="741"
         x2="741"
         y1="0"
         y2="576" />
    </g>
  </g>
  <g
     id="layer3"
     style="stroke:#ffffff;stroke-width:2px">
    <rect
       style="fill:#39c3aa"
       id="rect96"
       width="84"
       height="84"
       x="69"
       y="57" />
    <rect
       style="fill:#fb5891"
       id="rect97"
       width="84"
       height="84"
       x="69"
       y="435" />
    <rect
       style="fill:#659af6"
       id="rect98"
       width="42"
       height="210"
       x="69"
       y="183" />
    <rect
       style="fill:#ca9c01"
       id="rect101"
       width="42"
       height="210"
       x="657"
       y="183" />
    <rect
       style="fill:#8db600"
       id="rect102"
       width="84"
       height="84"
       x="615"
       y="57" />
    <rect
       style="fill:#9877fa"
       id="rect103"
       width="84"
       height="84"
       x="615"
       y="435" />
  </g>
  <g
     id="layer4"
     clip-path="url(#clipPath138)">
    <rect
       style="fill:#ffffff"
       id="rect104"
       width="504"
       height="21"
       x="132"
       y="519" />
    <rect
       style="fill:#ffffff"
       id="rect105"
       width="147"
       height="42.01321"
       x="132"
       y="477" />
    <rect
       style="fill:#000000"
       id="rect106"
       width="210"
       height="42"
       x="279"
       y="477" />
    <rect
       style="fill:#ffffff"
       id="rect107"
       width="147"
       height="42"
       x="489"
       y="477" />
    <rect
       style="fill:#000000"
       id="rect108"
       width="126"
       height="42"
       x="132"
       y="435" />
    <rect
       style="fill:#ffffff"
       id="rect109"
       width="252"
       height="42"
       x="258"
       y="435" />
    <rect
       style="fill:#000000"
       id="rect110"
       width="126"
       height="42"
       x="510"
       y="435" />
    <rect
       style="fill:#ffff00"
       id="rect112"
       width="63"
       height="84"
       x="195"
       y="309" />
    <rect
       style="fill:#00ffff"
       id="rect113"
       width="63"
       height="84"
       x="258"
       y="309" />
    <rect
       style="fill:#00ff00"
       id="rect114"
       width="63"
       height="84"
       x="321"
       y="309" />
    <rect
       style="fill:#ff00ff"
       id="rect115"
       width="63"
       height="84"
       x="384"
       y="309" />
    <rect
       style="fill:#ff0000"
       id="rect116"
       width="63"
       height="84"
       x="447"
       y="309" />
    <rect
       style="fill:#0000ff"
       id="rect117"
       width="63"
       height="84"
       x="510"
       y="309" />
    <rect
       style="fill:#000000"
       id="rect118"
       width="504"
       height="42"
       x="132"
       y="267" />
    <rect
       style="fill:#000000"
       id="rect119"
       width="42"
       height="63"
       x="132"
       y="141" />
    <rect
       style="fill:url(#linearGradient1)"
       id="rect120"
       width="84"
       height="63"
       x="174"
       y="141" />
    <rect
       style="fill:url(#linearGradient4)"
       id="rect121"
       width="84"
       height="63"
       x="258"
       y="141" />
    <rect
       style="fill:url(#linearGradient6)"
       id="rect122"
       width="84"
       height="63"
       x="342"
       y="141" />
    <rect
       style="fill:url(#linearGradient8)"
       id="rect123"
       width="84"
       height="63"
       x="426"
       y="141" />
    <rect
       style="fill:url(#linearGradient10)"
       id="rect124"
       width="84"
       height="63"
       x="510"
       y="141" />
    <rect
       style="fill:#000000"
       id="rect125"
       width="42"
       height="63"
       x="594"
       y="141" />
    <rect
       style="fill:#000000"
       id="rect126"
       width="84"
       height="63"
       x="132"
       y="204" />
    <rect
       style="fill:#333333"
       id="rect127"
       width="84"
       height="63"
       x="216"
       y="204" />
    <rect
       style="fill:#666666"
       id="rect128"
       width="84"
       height="63"
       x="300"
       y="204" />
    <rect
       style="fill:#999999"
       id="rect129"
       width="84"
       height="63"
       x="384"
       y="204" />
    <rect
       style="fill:#cccccc"
       id="rect130"
       width="84"
       height="63"
       x="468"
       y="204" />
    <rect
       style="fill:#ffffff"
       id="rect131"
       width="84"
       height="63"
       x="552"
       y="204" />
    <rect
       style="fill:#ff6600;"
       id="rect132"
       width="231"
       height="42"
       x="132"
       y="99" />
    <rect
       style="fill:#fff"
       id="rect133"
       width="42"
       height="42"
       x="363"
       y="99" />
    <rect
       style="fill:#ff6600"
       id="rect134"
       width="231"
       height="42"
       x="405"
       y="99" />
    <rect
       style="fill:#fff"
       id="rect135"
       width="504"
       height="63"
       x="132"
       y="36" />
    <rect
       style="fill:#ffffff"
       id="rect67"
       width="31"
       height="42"
       x="193"
       y="393" />
    <rect
       style="fill:#ffffff"
       id="rect68"
       width="31"
       height="42"
       x="599"
       y="393" />
    <rect
       style="fill:#ffffff"
       id="rect70"
       width="31"
       height="42"
       x="251"
       y="393" />
    <rect
       style="fill:#ffffff"
       id="rect71"
       width="31"
       height="42"
       x="309"
       y="393" />
    <rect
       style="fill:#ffffff"
       id="rect72"
       width="31"
       height="42"
       x="367"
       y="393" />
    <rect
       style="fill:#ffffff"
       id="rect73"
       width="31"
       height="42"
       x="425"
       y="393" />
    <rect
       style="fill:#ffffff"
       id="rect74"
       width="31"
       height="42"
       x="483"
       y="393" />
    <rect
       style="fill:#ffffff"
       id="rect75"
       width="31"
       height="42"
       x="541"
       y="393" />
    <g
       id="g75"
       style="stroke:#ffffff;stroke-width:2px">
      <line
         id="line97"
         x1="132"
         y1="288"
         x2="636"
         y2="288" />
      <line
         id="line98"
         x1="384"
         y1="267"
         x2="384"
         y2="309" />
      <line
         id="line99"
         x1="152"
         y1="267"
         x2="152"
         y2="309" />
      <line
         id="line100"
         x1="195"
         y1="267"
         x2="195"
         y2="309" />
      <line
         id="line101"
         x1="237"
         y1="267"
         x2="237"
         y2="309" />
      <line
         id="line102"
         x1="279"
         y1="267"
         x2="279"
         y2="309" />
      <line
         id="line103"
         x1="321"
         y1="267"
         x2="321"
         y2="309" />
      <line
         id="line107"
         x1="447"
         y1="267"
         x2="447"
         y2="309" />
      <line
         id="line108"
         x1="489"
         y1="267"
         x2="489"
         y2="309" />
      <line
         id="line109"
         x1="531"
         y1="267"
         x2="531"
         y2="309" />
      <line
         id="line110"
         x1="573"
         y1="267"
         x2="573"
         y2="309" />
      <line
         id="line111"
         x1="615"
         y1="267"
         x2="615"
         y2="309" />
    </g>
    <line
       id="line112"
       x1="279"
       y1="435"
       x2="279"
       y2="477"
       style="stroke:#000000;stroke-width:2px" />
    <rect
       style="fill:#ffffff"
       id="rect69"
       width="63"
       height="84"
       x="132"
       y="309" />
    <rect
       style="fill:#000000"
       id="rect76"
       width="63"
       height="84"
       x="573"
       y="309" />
    <line
       id="line104"
       x1="489"
       y1="435"
       x2="489"
       y2="477"
       style="stroke:#000000;stroke-width:2px" />
    <rect
       style="fill:#ffffff"
       id="rect77"
       width="31"
       height="42"
       x="139"
       y="393" />
    <rect
       id="rect78"
       width="27"
       height="42"
       x="166"
       y="393" />
    <rect
       id="rect79"
       width="27"
       height="42"
       x="224"
       y="393" />
    <rect
       id="rect80"
       width="27"
       height="42"
       x="282"
       y="393"
       style="stroke-width:1" />
    <rect
       id="rect81"
       width="27"
       height="42"
       x="340"
       y="393"
       style="stroke-width:1" />
    <rect
       id="rect82"
       width="27"
       height="42"
       x="398"
       y="393" />
    <rect
       id="rect83"
       width="27"
       height="42"
       x="456"
       y="393" />
    <rect
       id="rect84"
       width="27"
       height="42"
       x="514"
       y="393"
       style="stroke-width:1" />
    <rect
       id="rect85"
       width="27"
       height="42"
       x="572"
       y="393"
       style="stroke-width:1" />
  </g>
</svg>
