<?xml version="1.0" encoding="UTF-8" standalone="no"?>
<svg
   width="640"
   height="480"
   viewBox="0 0 640 480"
   version="1.1"
   id="svg1"
   xmlns="http://www.w3.org/2000/svg"><defs
     id="defs1"><clipPath
       id="clipPath110"><circle
         id="circle110"
         cx="320"
         cy="240"
         r="204" /></clipPath><linearGradient
       id="linearGradient1"
       gradientUnits="userSpaceOnUse"
       x1="150"
       y1="257"
       x2="161.3333"
       y2="257"
       spreadMethod="reflect"><stop
         id="stop1"
         offset="0" /><stop
         id="stop2"
         offset="1"
         style="stop-color:#fff" /></linearGradient><linearGradient
       id="linearGradient4"
       gradientUnits="userSpaceOnUse"
       x1="218"
       y1="257"
       x2="223.666"
       y2="257"
       spreadMethod="reflect"><stop
         id="stop3"
         offset="0" /><stop
         id="stop4"
         offset="1"
         style="stop-color:#fff" /></linearGradient><linearGradient
       id="linearGradient6"
       gradientUnits="userSpaceOnUse"
       x1="286"
       y1="257"
       x2="288.833"
       y2="257"
       spreadMethod="reflect"><stop
         id="stop5"
         offset="0" /><stop
         id="stop6"
         offset="1"
         style="stop-color:#fff" /></linearGradient><linearGradient
       id="linearGradient8"
       gradientUnits="userSpaceOnUse"
       x1="352"
       y1="256"
       x2="354.133333"
       y2="256"
       spreadMethod="reflect"><stop
         id="stop7"
         offset="0" /><stop
         id="stop8"
         offset="1"
         style="stop-color:#fff" /></linearGradient><linearGradient
       id="linearGradient10"
       gradientUnits="userSpaceOnUse"
       x1="416"
       y1="256"
       x2="417.5"
       y2="256"
       spreadMethod="reflect"><stop
         id="stop9"
         offset="0" /><stop
         id="stop10"
         offset="1"
         style="stop-color:#fff" /></linearGradient></defs><g
     id="layer1"><rect
       style="fill:#808080"
       id="rect1"
       width="578"
       height="442"
       x="31"
       y="19" /><rect
       style="fill:#ffffff"
       id="rect2"
       width="31"
       height="19" /><rect
       id="rect3"
       width="31"
       height="34"
       y="19" /><rect
       style="fill:#ffffff"
       id="rect4"
       width="31"
       height="34"
       y="54" /><rect
       id="rect5"
       width="31"
       height="34"
       x="0"
       y="88" /><rect
       style="fill:#ffffff"
       id="rect6"
       width="31"
       height="34"
       y="121" /><rect
       id="rect7"
       width="31"
       height="34"
       x="0"
       y="155" /><rect
       style="fill:#ffffff"
       id="rect8"
       width="31"
       height="34"
       y="189" /><rect
       id="rect9"
       width="31"
       height="34"
       y="223" /><rect
       style="fill:#ffffff"
       id="rect10"
       width="31"
       height="34"
       y="257" /><rect
       id="rect11"
       width="31"
       height="34"
       y="291" /><rect
       style="fill:#ffffff"
       id="rect12"
       width="31"
       height="34"
       y="325" /><rect
       id="rect13"
       width="31"
       height="34"
       y="359" /><rect
       style="fill:#ffffff"
       id="rect14"
       width="31"
       height="19"
       y="461" /><rect
       id="rect15"
       width="31"
       height="34"
       y="427" /><rect
       id="rect16"
       width="34"
       height="19"
       x="31" /><rect
       style="fill:#ffffff"
       id="rect17"
       width="34"
       height="19"
       x="65" /><rect
       id="rect18"
       width="34"
       height="19"
       x="99" /><rect
       style="fill:#ffffff"
       id="rect19"
       width="34"
       height="19"
       x="133" /><rect
       id="rect20"
       width="34"
       height="19"
       x="167" /><rect
       style="fill:#ffffff"
       id="rect21"
       width="34"
       height="19"
       x="201" /><rect
       id="rect22"
       width="34"
       height="19"
       x="235" /><rect
       style="fill:#ffffff"
       id="rect23"
       width="34"
       height="19"
       x="269" /><rect
       id="rect24"
       width="34"
       height="19"
       x="303" /><rect
       style="fill:#ffffff"
       id="rect25"
       width="34"
       height="19"
       x="337" /><rect
       id="rect26"
       width="34"
       height="19"
       x="371" /><rect
       style="fill:#ffffff"
       id="rect27"
       width="34"
       height="19"
       x="405" /><rect
       id="rect28"
       width="34"
       height="19"
       x="439" /><rect
       style="fill:#ffffff"
       id="rect29"
       width="34"
       height="19"
       x="473" /><rect
       id="rect30"
       width="34"
       height="19"
       x="507" /><rect
       style="fill:#ffffff"
       id="rect31"
       width="34"
       height="19"
       x="541" /><rect
       id="rect32"
       width="34"
       height="19"
       x="575" /><rect
       style="fill:#ffffff"
       id="rect33"
       width="31"
       height="19"
       x="609" /><rect
       id="rect35"
       width="31"
       height="34"
       x="609"
       y="19" /><rect
       style="fill:#ffffff"
       id="rect36"
       width="31"
       height="35"
       x="609"
       y="53" /><rect
       id="rect37"
       width="31"
       height="33"
       x="609"
       y="88" /><rect
       style="fill:#ffffff"
       id="rect38"
       width="31"
       height="34"
       x="609"
       y="121" /><rect
       id="rect39"
       width="31"
       height="34"
       x="609"
       y="155" /><rect
       style="fill:#ffffff"
       id="rect40"
       width="31"
       height="34"
       x="609"
       y="189" /><rect
       id="rect41"
       width="31"
       height="34"
       x="609"
       y="223" /><rect
       style="fill:#ffffff"
       id="rect42"
       width="31"
       height="34"
       x="609"
       y="257" /><rect
       id="rect43"
       width="31"
       height="34"
       x="609"
       y="291" /><rect
       style="fill:#ffffff"
       id="rect44"
       width="31"
       height="34"
       x="609"
       y="325" /><rect
       id="rect45"
       width="31"
       height="34"
       x="609"
       y="359" /><rect
       style="fill:#ffffff"
       id="rect46"
       width="31"
       height="34"
       x="609"
       y="393" /><rect
       id="rect47"
       width="31"
       height="34"
       x="609"
       y="427" /><rect
       id="rect48"
       width="34"
       height="19"
       x="31"
       y="461" /><rect
       style="fill:#ffffff"
       id="rect49"
       width="34"
       height="19"
       x="65"
       y="461" /><rect
       id="rect50"
       width="34"
       height="19"
       x="100"
       y="461" /><rect
       style="fill:#ffffff"
       id="rect51"
       width="34"
       height="19"
       x="134"
       y="461" /><rect
       id="rect52"
       width="34"
       height="19"
       x="168"
       y="461" /><rect
       style="fill:#ffffff"
       id="rect34"
       width="34"
       height="19"
       x="202"
       y="461" /><rect
       id="rect53"
       width="34"
       height="19"
       x="236"
       y="461" /><rect
       style="fill:#ffffff"
       id="rect54"
       width="34"
       height="19"
       x="270"
       y="461" /><rect
       id="rect55"
       width="34"
       height="19"
       x="304"
       y="461" /><rect
       style="fill:#ffffff"
       id="rect56"
       width="34"
       height="19"
       x="338"
       y="461" /><rect
       id="rect57"
       width="34"
       height="19"
       x="372"
       y="461" /><rect
       style="fill:#ffffff"
       id="rect58"
       width="34"
       height="19"
       x="406"
       y="461" /><rect
       id="rect59"
       width="34"
       height="19"
       x="440"
       y="461" /><rect
       style="fill:#ffffff"
       id="rect60"
       width="34"
       height="19"
       x="474"
       y="461" /><rect
       id="rect61"
       width="34"
       height="19"
       x="508"
       y="461" /><rect
       style="fill:#ffffff"
       id="rect62"
       width="34"
       height="19"
       x="542"
       y="461" /><rect
       id="rect63"
       width="34"
       height="19"
       x="576"
       y="461" /><rect
       style="fill:#ffffff"
       id="rect64"
       width="31"
       height="19"
       x="609"
       y="461" /><rect
       style="fill:#ffffff"
       id="rect65"
       width="31"
       height="34"
       x="0"
       y="393" /></g><g
     id="layer2"><g
       id="g64"
       style="stroke:#ffffff;stroke-width:2px"><line
         id="line64"
         x1="31"
         x2="31"
         y2="480" /><line
         id="line65"
         x1="65"
         x2="65"
         y2="480" /><line
         id="line66"
         x1="99"
         x2="99"
         y2="480" /><line
         id="line67"
         x1="133"
         x2="133"
         y2="480" /><line
         id="line68"
         x1="167"
         x2="167"
         y2="480" /><line
         id="line69"
         x1="201"
         x2="201"
         y2="480" /><line
         id="line70"
         x1="235"
         x2="235"
         y2="480" /><line
         id="line71"
         x1="269"
         x2="269"
         y2="480" /><line
         id="line72"
         x1="303"
         x2="303"
         y2="480" /><line
         id="line73"
         x1="337"
         x2="337"
         y2="480" /><line
         id="line74"
         x1="371"
         x2="371"
         y2="480" /><line
         id="line75"
         x1="405"
         x2="405"
         y2="480" /><line
         id="line76"
         x1="439"
         x2="439"
         y2="480" /><line
         id="line77"
         x1="473"
         x2="473"
         y2="480" /><line
         id="line78"
         x1="507"
         x2="507"
         y2="480" /><line
         id="line79"
         x1="541"
         x2="541"
         y2="480" /><line
         id="line80"
         x1="575"
         x2="575"
         y2="480" /><line
         id="line81"
         x1="609"
         x2="609"
         y2="480" /><line
         id="line82"
         y1="19"
         x2="640"
         y2="19" /><line
         id="line83"
         y1="53"
         x2="640"
         y2="53" /><line
         id="line84"
         y1="88"
         x2="640"
         y2="88" /><line
         id="line85"
         y1="121"
         x2="640"
         y2="121" /><line
         id="line86"
         y1="155"
         x2="640"
         y2="155" /><line
         id="line87"
         y1="189"
         x2="640"
         y2="189" /><line
         id="line88"
         y1="223"
         x2="640"
         y2="223" /><line
         id="line89"
         y1="257"
         x2="640"
         y2="257" /><line
         id="line90"
         y1="291"
         x2="640"
         y2="291" /><line
         id="line91"
         y1="325"
         x2="640"
         y2="325" /><line
         id="line92"
         y1="359"
         x2="640"
         y2="359" /><line
         id="line93"
         y1="393"
         x2="640"
         y2="393" /><line
         id="line94"
         y1="427"
         x2="640"
         y2="427" /><line
         id="line95"
         y1="461"
         x2="640"
         y2="461" /></g></g><g
     id="layer3"><g
       id="g109"
       clip-path="url(#clipPath110)"><rect
         style="fill:#ffffff"
         id="rect66"
         width="408"
         height="17"
         x="116"
         y="36" /><rect
         style="fill:#ffffff"
         id="rect67"
         width="136"
         height="35"
         x="116"
         y="53" /><rect
         id="rect68"
         width="136"
         height="35"
         x="252"
         y="53" /><rect
         style="fill:#ffffff"
         id="rect69"
         width="136"
         height="35"
         x="388"
         y="53" /><rect
         id="rect70"
         width="102"
         height="33"
         x="116"
         y="88" /><rect
         style="fill:#ffffff"
         id="rect71"
         width="204"
         height="33"
         x="218"
         y="88" /><rect
         id="rect72"
         width="102"
         height="33"
         x="422"
         y="88" /><rect
         style="fill:#bfbf00"
         id="rect74"
         width="68"
         height="68"
         x="116"
         y="155" /><rect
         style="fill:#00bfbf"
         id="rect76"
         width="68"
         height="68"
         x="184"
         y="155" /><rect
         style="fill:#00bf00"
         id="rect77"
         width="68"
         height="68"
         x="252"
         y="155" /><rect
         style="fill:#bf00bf"
         id="rect78"
         width="68"
         height="68"
         x="320"
         y="155" /><rect
         style="fill:#bf0000"
         id="rect79"
         width="68"
         height="68"
         x="388"
         y="155" /><rect
         style="fill:#0000bf"
         id="rect80"
         width="68"
         height="68"
         x="456"
         y="155" /><rect
         style="fill:#000000"
         id="rect81"
         width="408"
         height="34"
         x="116"
         y="223" /><rect
         id="rect82"
         width="34"
         height="68"
         x="116"
         y="257" /><rect
         style="fill:url(#linearGradient1)"
         id="rect83"
         width="68"
         height="68"
         x="150"
         y="257" /><rect
         style="fill:url(#linearGradient4)"
         id="rect84"
         width="68"
         height="68"
         x="218"
         y="257" /><rect
         style="fill:url(#linearGradient8)"
         id="rect85"
         width="68"
         height="68"
         x="354"
         y="257" /><rect
         style="fill:url(#linearGradient6)"
         id="rect86"
         width="68"
         height="68"
         x="286"
         y="257" /><rect
         style="fill:url(#linearGradient10)"
         id="rect87"
         width="68"
         height="68"
         x="422"
         y="257" /><rect
         id="rect88"
         width="34"
         height="68"
         x="490"
         y="257" /><rect
         id="rect89"
         width="68"
         height="34"
         x="116"
         y="325" /><rect
         style="fill:#333333"
         id="rect90"
         width="68"
         height="34"
         x="184"
         y="325" /><rect
         style="fill:#666666"
         id="rect91"
         width="68"
         height="34"
         x="252"
         y="325" /><rect
         style="fill:#999999"
         id="rect92"
         width="68"
         height="34"
         x="320"
         y="325" /><rect
         style="fill:#cccccc"
         id="rect93"
         width="68"
         height="34"
         x="388"
         y="325" /><rect
         style="fill:#ffffff"
         id="rect94"
         width="68"
         height="34"
         x="456"
         y="325" /><rect
         style="fill:#ffffff"
         id="rect103"
         width="102"
         height="34"
         x="116"
         y="359" /><rect
         id="rect104"
         width="204"
         height="34"
         x="218"
         y="359" /><rect
         style="fill:#ffffff"
         id="rect105"
         width="102"
         height="34"
         x="422"
         y="359" /><rect
         style="fill:#bfbf00"
         id="rect106"
         width="187"
         height="51"
         x="116"
         y="393" /><rect
         style="fill:#bf0000"
         id="rect107"
         width="34"
         height="51"
         x="303"
         y="393" /><rect
         style="fill:#bfbf00"
         id="rect108"
         width="187"
         height="51"
         x="337"
         y="393" /><rect
         id="rect109"
         width="34"
         height="102"
         x="303"
         y="189" /><g
         id="g110"
         style="stroke:#ffffff;stroke-width:2.33"><path
           id="path110"
           d="M 116,240 H 524" /><path
           id="path111"
           d="M 320,189 V 291" /><path
           id="path112"
           d="m 133,223 v 34" /><path
           id="path113"
           d="m 167,223 v 34" /><path
           id="path114"
           d="m 201,223 v 34" /><path
           id="path115"
           d="m 235,223 v 34" /><path
           id="path116"
           d="m 269,223 v 34" /><path
           id="path117"
           d="m 303,223 v 34" /><path
           id="path118"
           d="m 337,223 v 34" /><path
           id="path119"
           d="m 371,223 v 34" /><path
           id="path120"
           d="m 405,223 v 34" /><path
           id="path121"
           d="m 439,223 v 34" /><path
           id="path122"
           d="m 473,223 v 34" /><path
           id="path123"
           d="m 507,223 v 34" /></g><path
         style="fill:none;stroke:#000000;stroke-width:2.33"
         d="M 235,88 V 121"
         id="path131" /><path
         style="fill:none;stroke:#ffffff;stroke-width:2.33"
         d="m 235,359 v 34"
         id="path132" /><rect
         id="rect771"
         width="12"
         height="34"
         x="116"
         y="121" /><rect
         id="rect772"
         width="24"
         height="34"
         x="128"
         y="121"
         /><rect
         style="fill:#bfbfbf"
         id="rect773"
         width="24"
         height="34"
         x="152"
         y="121" /><rect
         id="rect774"
         width="24"
         height="34"
         x="176"
         y="121"
         /><rect
         style="fill:#bfbfbf"
         id="rect775"
         width="24"
         height="34"
         x="200"
         y="121" /><rect
         id="rect776"
         width="24"
         height="34"
         x="224"
         y="121" /><rect
         style="fill:#bfbfbf"
         id="rect777"
         width="24"
         height="34"
         x="248"
         y="121" /><rect
         id="rect778"
         width="24"
         height="34"
         x="272"
         y="121"
         /><rect
         style="fill:#bfbfbf"
         id="rect779"
         width="24"
         height="34"
         x="296"
         y="121" /><rect
         id="rect780"
         width="24"
         height="34"
         x="320"
         y="121" /><rect
         style="fill:#bfbfbf"
         id="rect781"
         width="24"
         height="34"
         x="344"
         y="121" /><rect
         id="rect782"
         width="24"
         height="34"
         x="368"
         y="121"
         /><rect
         style="fill:#bfbfbf"
         id="rect783"
         width="24"
         height="34"
         x="392"
         y="121" /><rect
         id="rect784"
         width="24"
         height="34"
         x="416"
         y="121"
         /><rect
         style="fill:#bfbfbf"
         id="rect785"
         width="24"
         height="34"
         x="440"
         y="121" /><rect
         id="rect786"
         width="24"
         height="34"
         x="464"
         y="121"
         /><rect
         style="fill:#bfbfbf"
         id="rect787"
         width="24"
         height="34"
         x="488"
         y="121" /><rect
         id="rect788"
         width="12"
         height="34"
         x="512"
         y="121" /></g></g><g
     id="layer4"><rect
       style="fill:#3b9b7a"
       id="rect95"
       width="34"
       height="187"
       x="65"
       y="53" /><rect
       style="fill:#b95a7a"
       id="rect96"
       width="34"
       height="187"
       x="65"
       y="240" /><rect
       style="fill:#537ae1"
       id="rect97"
       width="34"
       height="68"
       x="99"
       y="53" /><rect
       style="fill:#a17a14"
       id="rect98"
       width="34"
       height="68"
       x="99"
       y="359" /><rect
       style="fill:#537ae1"
       id="rect99"
       width="34"
       height="68"
       x="507"
       y="53" /><rect
       style="fill:#a17a14"
       id="rect100"
       width="33"
       height="68"
       x="507"
       y="359" /><rect
       style="fill:#7a9009"
       id="rect101"
       width="34"
       height="187"
       x="541"
       y="53" /><rect
       style="fill:#7a65eb"
       id="rect102"
       width="34"
       height="187"
       x="540"
       y="240" /><path
       style="stroke:#ffffff;fill:none;stroke-width:2.33"
       d="m 65,53 h 68 v 68 H 99 v 238 h 34 v 68 H 65 Z"
       id="path102" /><path
       style="stroke:#ffffff;fill:none;stroke-width:2.33"
       d="m 575,53 h -68 v 68 h 34 v 238 h -34 v 68 h 68 z"
       id="path103" /></g></svg>
